<svg id="vector" xmlns="http://www.w3.org/2000/svg" width="20" height="20" viewBox="0 0 400 400"><path fill="#fbfbfc" fill-rule="evenodd" d="M168.8,70.78C155.19,75.67 145.56,86.41 141.54,101.2C140.81,103.92 140.7,106 140.38,123.6C140.19,134.27 139.84,153.26 139.61,165.8C139.13,191.9 139.05,242.67 139.5,242.93C139.66,243.02 153.08,243.23 169.3,243.39L198.81,243.68 198.71,227.54L198.6,211.4 181.7,211.3C165.97,211.2 164.8,211.14 164.76,210.5C164.57,206.55 164.94,131.09 165.2,124C165.49,115.73 165.64,114.3 166.45,112.1C171.34,98.69 185.79,101.01 197.6,117.11C199.96,120.33 199.8,120.43 202.86,114.1C204.32,111.07 207.16,105.29 209.16,101.24C211.16,97.19 212.8,93.62 212.8,93.3C212.8,90 198.89,76.08 192.2,72.7C185.47,69.29 175.28,68.45 168.8,70.78M201.1,173.9L198.8,174.04 198.8,189.52L198.8,205 205.7,205.01C226.49,205.06 242.97,217.93 248.43,238.4C249.49,242.35 249.77,253.95 248.88,257.1C248.62,258.04 248.21,259.57 247.98,260.5C243.26,279.54 224.21,293.16 203.5,292.31L198.8,292.11 198.8,307.81L198.8,323.5 200.05,323.75C204.25,324.59 216.84,323.45 224.2,321.56C274.25,308.72 296.81,250.63 268.51,207.49C266,203.66 259.65,195.99 257.35,194.01C242.88,181.54 228.91,175.39 211.99,174.03C206.76,173.61 205.83,173.6 201.1,173.9" stroke="#00000000" id="path_0"/><path fill="#5474fc" fill-rule="evenodd" d="M185.41,43.21C185.56,43.45 184.2,43.6 181.82,43.6C179.54,43.6 178,43.76 178,44C178,44.23 176.68,44.4 174.83,44.4C173.09,44.4 171.61,44.57 171.53,44.78C171.46,44.99 170.37,45.2 169.12,45.24C167.86,45.29 166.93,45.49 167.04,45.67C167.15,45.85 166.44,46 165.46,46C164.47,46 163.61,46.17 163.53,46.38C163.46,46.59 162.55,46.8 161.52,46.85C160.49,46.9 159.74,47.09 159.85,47.27C159.96,47.45 159.33,47.6 158.45,47.6C157.57,47.6 156.74,47.78 156.6,48C156.46,48.22 155.92,48.4 155.4,48.4C154.88,48.4 154.34,48.58 154.2,48.8C154.06,49.02 153.26,49.2 152.41,49.2C151.56,49.2 150.81,49.38 150.73,49.6C150.66,49.81 150.12,50.03 149.53,50.08C148.94,50.13 148.54,50.31 148.65,50.49C148.82,50.76 147.2,51 146.27,50.84C146.09,50.81 146.05,50.97 146.19,51.19C146.41,51.54 144.95,51.83 143.87,51.64C143.69,51.61 143.65,51.76 143.79,51.99C143.94,52.23 143.62,52.4 143.02,52.4C142.46,52.4 142,52.58 142,52.8C142,53.02 141.46,53.2 140.8,53.2C140.14,53.2 139.6,53.38 139.6,53.6C139.6,53.82 139.33,54 138.99,54C138.66,54 138.08,54.16 137.7,54.35C134.72,55.85 133.45,56.4 132.96,56.4C132.65,56.4 132.4,56.58 132.4,56.8C132.4,57.02 132.09,57.2 131.7,57.2C130.8,57.19 121.2,62 121.2,62.46C121.2,62.65 120.84,62.8 120.4,62.8C119.96,62.8 119.6,62.98 119.6,63.2C119.6,63.42 119.24,63.6 118.8,63.6C118.36,63.6 118,63.78 118,64C118,64.22 117.76,64.4 117.47,64.4C117.19,64.4 116.56,64.76 116.09,65.2C115.62,65.64 115.02,66 114.76,66C114.5,66 114,66.32 113.65,66.71C113.29,67.1 112.14,67.84 111.1,68.37C110.06,68.9 109.2,69.48 109.2,69.66C109.2,69.85 108.97,70 108.7,70C108.43,70 107.63,70.54 106.92,71.2C106.22,71.86 105.45,72.4 105.22,72.4C104.98,72.4 104.23,72.94 103.54,73.6C102.85,74.26 102.12,74.8 101.93,74.8C101.73,74.8 100.94,75.43 100.16,76.21C99.39,76.99 98.56,77.5 98.32,77.35C98.05,77.18 97.99,77.26 98.16,77.54C98.32,77.79 98.28,78 98.07,78C97.86,78 96.96,78.72 96.05,79.6C95.14,80.48 94.24,81.2 94.03,81.2C93.55,81.2 78.8,95.92 78.8,96.4C78.8,96.61 77.72,97.89 76.4,99.26C75.08,100.64 74,101.93 74,102.14C74,102.34 73.46,103.03 72.8,103.66C72.14,104.29 71.6,105.04 71.6,105.32C71.6,105.6 71.24,106.08 70.8,106.4C70.36,106.72 70,107.22 70,107.51C70,107.82 69.8,107.92 69.54,107.76C69.26,107.59 69.18,107.65 69.35,107.91C69.49,108.15 69.16,108.8 68.61,109.36C68.05,109.91 67.6,110.56 67.6,110.8C67.6,111.04 67.16,111.68 66.62,112.22C66.08,112.76 65.32,113.87 64.94,114.7C64.56,115.52 63.92,116.49 63.52,116.85C63.12,117.2 62.8,117.71 62.8,117.96C62.8,118.22 62.44,118.82 62,119.29C61.56,119.76 61.2,120.44 61.2,120.8C61.2,121.16 60.84,121.84 60.4,122.31C59.96,122.78 59.6,123.36 59.6,123.6C59.6,123.84 59.24,124.42 58.8,124.89C58.36,125.36 58,126.17 58,126.68C58,127.18 57.82,127.6 57.6,127.6C57.38,127.6 57.2,127.96 57.2,128.4C57.2,128.84 57.02,129.2 56.8,129.2C56.58,129.2 56.4,129.56 56.4,130C56.4,130.44 56.22,130.8 56,130.8C55.78,130.8 55.6,131.12 55.6,131.51C55.6,131.9 55.24,132.48 54.8,132.8C54.36,133.12 54,133.78 54,134.26C54,134.75 53.82,135.26 53.6,135.4C53.38,135.54 53.2,136 53.2,136.42C53.2,136.85 53.02,137.2 52.8,137.2C52.58,137.2 52.4,137.55 52.4,137.98C52.4,138.4 52.22,138.86 52,139C51.78,139.14 51.6,139.61 51.6,140.05C51.6,140.49 51.46,140.76 51.28,140.65C51.11,140.54 50.94,140.85 50.9,141.32C50.84,142.12 50.48,143.07 49.55,144.9C49.36,145.28 49.2,145.86 49.2,146.2C49.2,146.53 49.02,146.8 48.8,146.8C48.58,146.8 48.4,147.34 48.4,148C48.4,148.66 48.22,149.2 48,149.2C47.78,149.2 47.6,149.74 47.6,150.4C47.6,151.06 47.42,151.6 47.2,151.6C46.98,151.6 46.8,152.14 46.8,152.8C46.8,153.46 46.62,154 46.4,154C46.18,154 46,154.53 46,155.18C46,155.82 45.82,156.46 45.6,156.6C45.38,156.74 45.2,157.46 45.2,158.2C45.2,158.94 45.02,159.66 44.8,159.8C44.58,159.94 44.4,160.57 44.4,161.2C44.4,161.83 44.22,162.46 44,162.6C43.78,162.74 43.6,163.56 43.6,164.42C43.6,165.29 43.42,166 43.2,166C42.98,166 42.8,166.9 42.8,168C42.8,169.1 42.62,170 42.4,170C42.18,170 42,170.9 42,172C42,173.1 41.82,174 41.6,174C41.38,174 41.2,175.07 41.2,176.4C41.2,177.73 41.02,178.8 40.8,178.8C40.57,178.8 40.4,180.13 40.4,181.98C40.4,183.72 40.22,185.26 40,185.4C39.45,185.74 39.45,217.46 40,217.8C40.22,217.94 40.4,219.48 40.4,221.22C40.4,223.07 40.57,224.4 40.8,224.4C41.02,224.4 41.2,225.46 41.2,226.77C41.2,228.07 41.37,229.19 41.58,229.27C41.78,229.34 42,230.43 42.04,231.68C42.1,232.94 42.28,233.87 42.47,233.76C42.65,233.65 42.8,234.27 42.8,235.15C42.8,236.03 42.98,236.86 43.2,237C43.42,237.14 43.6,238.04 43.6,239C43.6,239.96 43.78,240.86 44,241C44.22,241.14 44.4,241.68 44.4,242.2C44.4,242.72 44.58,243.26 44.8,243.4C45.02,243.54 45.2,244.36 45.2,245.22C45.2,246.09 45.38,246.8 45.6,246.8C45.82,246.8 46,247.33 46,247.98C46,248.62 46.18,249.26 46.4,249.4C46.62,249.54 46.8,250.08 46.8,250.6C46.8,251.12 46.98,251.66 47.2,251.8C47.42,251.94 47.6,252.48 47.6,253C47.6,253.52 47.78,254.06 48,254.2C48.22,254.34 48.4,254.87 48.4,255.39C48.4,255.91 48.58,256.39 48.8,256.47C49.01,256.54 49.23,257.08 49.28,257.67C49.33,258.26 49.51,258.65 49.69,258.55C49.86,258.44 50,258.81 50,259.38C50,259.94 50.18,260.4 50.4,260.4C50.62,260.4 50.8,260.94 50.8,261.6C50.8,262.26 50.98,262.8 51.2,262.8C51.42,262.8 51.6,263.16 51.6,263.6C51.6,264.04 51.78,264.4 52,264.4C52.22,264.4 52.4,264.65 52.4,264.95C52.4,265.26 52.66,266.01 52.98,266.63C53.3,267.24 53.45,267.92 53.32,268.13C53.18,268.35 53.28,268.4 53.54,268.24C53.83,268.06 54,268.25 54,268.75C54,269.19 54.18,269.66 54.4,269.8C54.62,269.94 54.8,270.4 54.8,270.82C54.8,271.25 54.98,271.6 55.2,271.6C55.42,271.6 55.6,271.96 55.6,272.4C55.6,272.84 55.78,273.2 56,273.2C56.22,273.2 56.4,273.56 56.4,274C56.4,274.44 56.58,274.8 56.8,274.8C57.02,274.8 57.2,275.16 57.2,275.6C57.2,276.04 57.38,276.4 57.6,276.4C57.82,276.4 58,276.76 58,277.2C58,277.64 58.18,278 58.4,278C58.62,278 58.8,278.24 58.8,278.52C58.8,278.81 59.16,279.44 59.6,279.91C60.04,280.38 60.4,281.04 60.4,281.38C60.4,281.72 60.58,282 60.8,282C61.02,282 61.2,282.29 61.2,282.65C61.2,283.01 61.52,283.6 61.91,283.95C62.3,284.31 63.04,285.45 63.57,286.5C64.1,287.55 64.68,288.4 64.86,288.4C65.05,288.4 65.2,288.68 65.2,289.02C65.2,289.36 65.65,290.09 66.21,290.64C66.76,291.2 67.09,291.85 66.95,292.09C66.79,292.35 66.86,292.41 67.14,292.24C67.4,292.08 67.6,292.18 67.6,292.49C67.6,292.78 67.96,293.28 68.4,293.6C68.84,293.92 69.2,294.36 69.2,294.59C69.2,294.82 69.65,295.52 70.19,296.15C70.74,296.79 71.07,297.49 70.93,297.71C70.78,297.95 70.87,298 71.14,297.84C71.39,297.68 71.6,297.72 71.6,297.92C71.6,298.12 72.14,298.85 72.8,299.54C73.46,300.23 74,300.99 74,301.23C74,301.47 74.72,302.35 75.6,303.2C76.48,304.05 77.2,304.92 77.2,305.15C77.2,305.7 94.31,322.8 94.85,322.8C95.08,322.8 95.95,323.52 96.8,324.4C97.65,325.28 98.49,326 98.67,326C98.85,326 99.63,326.54 100.4,327.2C101.17,327.86 101.95,328.4 102.12,328.4C102.3,328.4 102.32,328.61 102.16,328.86C102,329.13 102.05,329.22 102.3,329.06C102.53,328.92 103.41,329.43 104.26,330.19C105.11,330.96 105.96,331.59 106.15,331.59C106.35,331.6 106.8,331.92 107.16,332.3C107.52,332.68 108.21,333.23 108.7,333.5C109.2,333.77 110,334.23 110.5,334.5C110.99,334.77 111.68,335.32 112.04,335.7C112.4,336.08 112.99,336.4 113.35,336.4C113.71,336.4 114,336.58 114,336.8C114,337.02 114.28,337.2 114.62,337.2C115.01,337.2 115.14,337.39 114.96,337.7C114.8,337.98 114.82,338.07 114.99,337.91C115.34,337.6 117.3,338.58 118.56,339.7C119,340.08 119.59,340.4 119.88,340.4C120.16,340.4 120.4,340.58 120.4,340.8C120.4,341.02 120.63,341.2 120.92,341.2C121.66,341.2 123.59,342.14 123.6,342.5C123.6,342.67 123.96,342.8 124.4,342.8C124.84,342.8 125.2,342.98 125.2,343.2C125.2,343.42 125.56,343.6 126,343.6C126.44,343.6 126.8,343.78 126.8,344C126.8,344.22 127.16,344.4 127.6,344.4C128.04,344.4 128.4,344.58 128.4,344.8C128.4,345.02 128.76,345.2 129.2,345.2C129.64,345.2 130,345.38 130,345.6C130,345.82 130.36,346 130.8,346C131.24,346 131.6,346.18 131.6,346.4C131.6,346.62 131.95,346.8 132.38,346.8C132.8,346.8 133.26,346.98 133.4,347.2C133.54,347.42 134.09,347.6 134.62,347.6C135.16,347.6 135.6,347.78 135.6,348C135.6,348.22 135.87,348.4 136.19,348.4C136.51,348.4 137.42,348.76 138.2,349.2C138.98,349.64 139.98,350 140.41,350C140.85,350 141.2,350.18 141.2,350.4C141.2,350.62 141.74,350.8 142.4,350.8C143.06,350.8 143.6,350.98 143.6,351.2C143.6,351.42 144.06,351.6 144.62,351.6C145.19,351.6 145.56,351.74 145.45,351.92C145.35,352.09 145.73,352.27 146.31,352.32C146.89,352.36 147.54,352.58 147.76,352.8C147.98,353.02 148.75,353.2 149.48,353.2C150.21,353.2 150.8,353.38 150.8,353.6C150.8,353.82 151.34,354 152,354C152.66,354 153.2,354.18 153.2,354.4C153.2,354.62 153.73,354.8 154.38,354.8C155.02,354.8 155.66,354.98 155.8,355.2C155.94,355.42 156.77,355.6 157.65,355.6C158.53,355.6 159.16,355.74 159.05,355.92C158.94,356.1 159.6,356.29 160.52,356.35C161.45,356.4 162.37,356.61 162.58,356.82C162.79,357.03 163.64,357.2 164.48,357.2C165.32,357.2 166,357.38 166,357.6C166,357.82 166.89,358 167.98,358C169.06,358 170.06,358.18 170.2,358.4C170.34,358.62 171.43,358.8 172.62,358.8C173.82,358.8 174.8,358.98 174.8,359.2C174.8,359.44 176.4,359.6 178.8,359.6C181.2,359.6 182.8,359.76 182.8,360C182.8,360.53 213.88,360.55 214.07,360.02C214.14,359.81 215.95,359.61 218.09,359.57C220.23,359.53 221.89,359.34 221.77,359.15C221.65,358.96 222.54,358.8 223.74,358.8C224.95,358.8 225.99,358.63 226.07,358.42C226.14,358.21 227.23,358 228.48,357.95C229.74,357.9 230.67,357.71 230.56,357.53C230.45,357.35 231.07,357.2 231.95,357.2C232.83,357.2 233.66,357.02 233.8,356.8C233.94,356.58 234.84,356.4 235.8,356.4C236.76,356.4 237.66,356.22 237.8,356C237.94,355.78 238.57,355.6 239.2,355.6C239.83,355.6 240.46,355.42 240.6,355.2C240.74,354.98 241.47,354.8 242.22,354.8C242.98,354.8 243.6,354.62 243.6,354.4C243.6,354.18 244.04,354 244.58,354C245.11,354 245.66,353.82 245.8,353.6C245.94,353.38 246.58,353.2 247.22,353.2C247.87,353.2 248.4,353.02 248.4,352.8C248.4,352.58 248.94,352.4 249.6,352.4C250.26,352.4 250.8,352.22 250.8,352C250.8,351.78 251.21,351.6 251.72,351.6C252.23,351.6 252.82,351.42 253.04,351.2C253.26,350.98 253.91,350.77 254.49,350.72C255.07,350.67 255.46,350.49 255.35,350.32C255.24,350.14 255.61,350 256.18,350C256.74,350 257.2,349.82 257.2,349.6C257.2,349.38 257.74,349.2 258.4,349.2C259.06,349.2 259.6,349.02 259.6,348.8C259.6,348.58 259.96,348.4 260.4,348.4C260.84,348.4 261.2,348.22 261.2,348C261.2,347.78 261.55,347.6 261.97,347.6C262.39,347.6 262.79,347.42 262.87,347.2C262.94,346.98 263.48,346.77 264.07,346.72C264.66,346.67 265.05,346.49 264.95,346.32C264.84,346.14 265.2,346 265.74,346C266.29,346 266.79,345.86 266.87,345.7C267.06,345.27 274.11,341.78 274.52,341.91C274.71,341.97 274.74,341.83 274.61,341.61C274.47,341.38 274.69,341.2 275.1,341.2C275.51,341.2 276.21,340.89 276.64,340.5C277.66,339.61 279.07,338.8 279.61,338.8C279.84,338.8 280.39,338.46 280.83,338.05C281.27,337.64 282.44,336.89 283.42,336.39C284.4,335.89 285.2,335.32 285.2,335.14C285.2,334.95 285.52,334.8 285.91,334.8C286.3,334.8 286.88,334.44 287.2,334C287.52,333.56 287.96,333.2 288.19,333.19C288.42,333.19 289.29,332.56 290.14,331.79C290.99,331.03 291.87,330.52 292.1,330.66C292.35,330.82 292.4,330.73 292.24,330.46C292.08,330.21 292.15,330 292.39,330C292.64,330 293.29,329.55 293.84,328.99C294.4,328.44 295.05,328.11 295.29,328.25C295.53,328.4 295.61,328.34 295.48,328.12C295.34,327.9 295.67,327.48 296.21,327.19C296.76,326.9 297.2,326.52 297.2,326.33C297.2,326.15 297.44,326 297.73,326C298.03,326 299.6,324.74 301.23,323.2C302.86,321.66 304.32,320.4 304.47,320.4C304.92,320.4 318,307.21 318,306.75C318,306.53 318.9,305.47 320,304.4C321.1,303.33 322,302.26 322,302.02C322,301.79 322.54,301.03 323.2,300.34C323.86,299.65 324.4,298.92 324.4,298.72C324.4,298.52 324.61,298.48 324.86,298.64C325.13,298.8 325.22,298.75 325.07,298.51C324.92,298.28 325.44,297.4 326.2,296.57C326.97,295.73 327.6,294.85 327.6,294.61C327.6,294.37 327.96,293.92 328.4,293.6C328.84,293.28 329.2,292.7 329.2,292.31C329.2,291.92 329.35,291.6 329.53,291.6C329.71,291.6 330.12,291.11 330.43,290.5C330.74,289.89 331.31,289.11 331.7,288.75C332.08,288.4 332.4,287.89 332.4,287.64C332.4,287.38 332.76,286.78 333.2,286.31C333.64,285.84 334,285.21 334,284.92C334,284.64 334.18,284.4 334.4,284.4C334.62,284.4 334.8,284.12 334.8,283.78C334.8,283.44 335.16,282.78 335.6,282.31C336.04,281.84 336.4,281.21 336.4,280.92C336.4,280.64 336.58,280.4 336.8,280.4C337.02,280.4 337.2,280.04 337.2,279.6C337.2,279.16 337.38,278.8 337.6,278.8C337.82,278.8 338,278.44 338,278C338,277.56 338.18,277.2 338.4,277.2C338.62,277.2 338.8,276.84 338.8,276.4C338.8,275.96 338.98,275.6 339.2,275.6C339.42,275.6 339.6,275.24 339.6,274.8C339.6,274.36 339.78,274 340,274C340.22,274 340.4,273.64 340.4,273.2C340.4,272.76 340.55,272.4 340.73,272.4C341.05,272.4 341.71,271.22 342.42,269.4C343.45,266.76 343.83,266 344.1,266C344.26,266 344.4,265.65 344.4,265.22C344.4,264.8 344.58,264.34 344.8,264.2C345.02,264.06 345.2,263.51 345.2,262.98C345.2,262.44 345.38,262 345.6,262C345.82,262 346,261.54 346,260.98C346,260.41 346.14,260.04 346.32,260.15C346.49,260.26 346.67,259.86 346.72,259.27C346.77,258.68 346.98,258.14 347.2,258.07C347.42,257.99 347.6,257.6 347.6,257.19C347.6,256.78 347.78,256.34 348,256.2C348.22,256.06 348.4,255.52 348.4,255C348.4,254.48 348.58,253.94 348.8,253.8C349.02,253.66 349.2,253.12 349.2,252.6C349.2,252.08 349.38,251.54 349.6,251.4C349.82,251.26 350,250.72 350,250.2C350,249.68 350.18,249.14 350.4,249C350.62,248.86 350.8,248.14 350.8,247.4C350.8,246.66 350.98,245.94 351.2,245.8C351.42,245.66 351.6,245.03 351.6,244.4C351.6,243.77 351.78,243.14 352,243C352.22,242.86 352.4,242.04 352.4,241.18C352.4,240.31 352.58,239.6 352.8,239.6C353.02,239.6 353.2,238.89 353.2,238.02C353.2,237.16 353.38,236.34 353.6,236.2C353.82,236.06 354,235.15 354,234.18C354,233.2 354.18,232.4 354.4,232.4C354.62,232.4 354.8,231.4 354.8,230.18C354.8,228.95 354.95,228.05 355.14,228.16C355.32,228.28 355.51,227.16 355.56,225.68C355.61,224.21 355.81,222.94 356.02,222.87C356.23,222.79 356.4,221.14 356.4,219.19C356.4,217.24 356.58,215.54 356.79,215.41C357.32,215.08 357.32,188.12 356.79,187.79C356.58,187.66 356.4,185.94 356.4,183.98C356.4,181.86 356.24,180.4 356,180.4C355.78,180.4 355.6,179.33 355.6,178C355.6,176.67 355.42,175.6 355.2,175.6C354.98,175.6 354.8,174.53 354.8,173.2C354.8,171.87 354.62,170.8 354.4,170.8C354.18,170.8 354,169.9 354,168.8C354,167.7 353.82,166.8 353.6,166.8C353.38,166.8 353.2,166.18 353.2,165.42C353.2,164.67 353.02,163.94 352.8,163.8C352.58,163.66 352.4,162.94 352.4,162.2C352.4,161.46 352.22,160.74 352,160.6C351.78,160.46 351.6,159.74 351.6,159C351.6,158.26 351.42,157.54 351.2,157.4C350.98,157.26 350.8,156.72 350.8,156.2C350.8,155.68 350.62,155.14 350.4,155C350.18,154.86 350,154.32 350,153.8C350,153.28 349.82,152.74 349.6,152.6C349.38,152.46 349.2,151.82 349.2,151.18C349.2,150.53 349.02,150 348.8,150C348.58,150 348.4,149.48 348.4,148.83C348.4,148.19 348.22,147.61 348,147.53C347.79,147.46 347.57,146.92 347.52,146.33C347.47,145.74 347.29,145.35 347.11,145.45C346.94,145.56 346.8,145.27 346.8,144.82C346.8,144.36 346.64,143.68 346.45,143.29C346.25,142.91 345.91,142.15 345.69,141.6C345.47,141.05 345.01,139.98 344.67,139.22C344.33,138.46 344.16,137.66 344.29,137.45C344.42,137.25 344.32,137.21 344.06,137.36C343.77,137.54 343.6,137.35 343.6,136.85C343.6,136.41 343.42,135.94 343.2,135.8C342.98,135.66 342.8,135.2 342.8,134.78C342.8,134.35 342.62,134 342.4,134C342.18,134 342,133.64 342,133.2C342,132.76 341.82,132.4 341.6,132.4C341.38,132.4 341.2,132.04 341.2,131.6C341.2,131.16 341.02,130.8 340.8,130.8C340.58,130.8 340.4,130.44 340.4,130C340.4,129.56 340.22,129.2 340,129.2C339.78,129.2 339.6,128.84 339.6,128.4C339.6,127.96 339.42,127.6 339.2,127.6C338.98,127.6 338.8,127.24 338.8,126.8C338.8,126.36 338.62,126 338.4,126C338.18,126 338,125.64 338,125.2C338,124.76 337.82,124.4 337.6,124.4C337.38,124.4 337.2,124.16 337.2,123.88C337.2,123.59 336.84,122.96 336.4,122.49C335.96,122.02 335.6,121.36 335.6,121.02C335.6,120.68 335.42,120.4 335.2,120.4C334.98,120.4 334.8,120.11 334.8,119.75C334.8,119.39 334.48,118.8 334.08,118.45C333.68,118.09 333.06,117.16 332.7,116.39C332.34,115.61 331.68,114.55 331.23,114.04C330.78,113.52 330.53,112.91 330.67,112.69C330.82,112.45 330.73,112.4 330.46,112.56C330.21,112.72 330,112.63 330,112.37C330,112.11 329.68,111.6 329.3,111.25C328.91,110.89 328.34,110.11 328.03,109.5C327.72,108.89 327.32,108.4 327.13,108.4C326.95,108.4 326.8,108.12 326.8,107.79C326.8,107.45 326.17,106.54 325.39,105.76C324.61,104.99 324.1,104.16 324.25,103.92C324.42,103.65 324.34,103.59 324.06,103.76C323.8,103.92 323.6,103.82 323.6,103.51C323.6,103.22 323.24,102.72 322.8,102.4C322.36,102.08 322,101.62 322,101.38C322,101.13 320.47,99.35 318.6,97.43C316.73,95.51 315.3,93.76 315.43,93.56C315.55,93.35 315.45,93.23 315.19,93.29C314.94,93.35 314.52,93.07 314.26,92.67C313.64,91.69 306.68,84.72 305.74,84.14C305.33,83.88 305.05,83.46 305.11,83.21C305.17,82.95 305.07,82.83 304.88,82.95C304.69,83.07 303.49,82.18 302.2,80.98C300.91,79.78 299.7,78.8 299.5,78.8C299.31,78.8 299.28,78.59 299.44,78.34C299.61,78.07 299.55,77.98 299.3,78.14C299.07,78.28 298.02,77.59 296.98,76.6C295.93,75.61 294.91,74.8 294.71,74.8C294.52,74.8 293.78,74.26 293.08,73.6C292.38,72.94 291.58,72.4 291.3,72.4C291.02,72.4 290.8,72.22 290.8,72C290.8,71.78 290.52,71.6 290.18,71.6C289.81,71.6 289.67,71.41 289.84,71.14C290,70.87 289.95,70.78 289.71,70.93C289.49,71.07 288.79,70.74 288.15,70.19C287.52,69.65 286.82,69.2 286.59,69.2C286.36,69.2 285.92,68.84 285.6,68.4C285.28,67.96 284.7,67.6 284.31,67.6C283.92,67.6 283.6,67.45 283.6,67.26C283.6,67.08 282.74,66.49 281.7,65.96C280.65,65.43 279.45,64.69 279.02,64.3C278.6,63.92 278.01,63.6 277.73,63.6C277.44,63.6 277.2,63.42 277.2,63.2C277.2,62.98 276.84,62.8 276.4,62.8C275.96,62.8 275.6,62.62 275.6,62.4C275.6,62.18 275.24,62 274.8,62C274.36,62 274,61.82 274,61.6C274,61.38 273.64,61.2 273.2,61.2C272.76,61.2 272.4,61.02 272.4,60.8C272.4,60.58 272.04,60.4 271.6,60.4C271.16,60.4 270.8,60.22 270.8,60C270.8,59.78 270.44,59.6 270,59.6C269.56,59.6 269.2,59.42 269.2,59.2C269.2,58.98 268.84,58.8 268.4,58.8C267.96,58.8 267.6,58.62 267.6,58.4C267.6,58.18 267.24,58 266.8,58C266.36,58 266,57.82 266,57.6C266,57.38 265.77,57.2 265.48,57.2C264.74,57.2 262.81,56.26 262.8,55.9C262.8,55.74 262.44,55.6 262,55.6C261.56,55.6 261.2,55.42 261.2,55.2C261.2,54.98 260.66,54.8 260,54.8C259.34,54.8 258.8,54.62 258.8,54.4C258.8,54.18 258.45,54 258.02,54C257.6,54 257.14,53.82 257,53.6C256.86,53.38 256.32,53.2 255.8,53.2C255.28,53.2 254.74,53.02 254.6,52.8C254.46,52.58 253.91,52.4 253.38,52.4C252.84,52.4 252.4,52.22 252.4,52C252.4,51.78 252.05,51.6 251.62,51.6C251.2,51.6 250.74,51.42 250.6,51.2C250.46,50.98 249.92,50.8 249.4,50.8C248.88,50.8 248.34,50.62 248.2,50.4C248.06,50.18 247.52,50 247,50C246.48,50 245.94,49.82 245.8,49.6C245.66,49.38 244.93,49.2 244.18,49.2C243.42,49.2 242.8,49.02 242.8,48.8C242.8,48.58 242.09,48.4 241.22,48.4C240.36,48.4 239.54,48.22 239.4,48C239.26,47.78 238.72,47.6 238.2,47.6C237.68,47.6 237.14,47.42 237,47.2C236.86,46.98 235.95,46.8 234.98,46.8C234,46.8 233.2,46.62 233.2,46.4C233.2,46.18 232.49,46 231.62,46C230.76,46 229.94,45.82 229.8,45.6C229.66,45.38 228.47,45.2 227.15,45.2C225.83,45.2 224.85,45.05 224.96,44.86C225.08,44.67 223.79,44.48 222.09,44.44C220.39,44.39 218.94,44.19 218.87,43.98C218.79,43.77 217.03,43.6 214.94,43.6C212.59,43.6 211.24,43.45 211.39,43.21C211.55,42.96 206.87,42.82 198.4,42.82C189.93,42.82 185.25,42.96 185.41,43.21M185.82,69.62C194.78,71.93 204.8,79.79 211.65,89.88C214.12,93.53 214.4,92.24 208.66,103.82C205.94,109.31 203.02,115.28 202.16,117.09C200.88,119.79 199.72,121.32 199.43,120.71C199.2,120.21 195,114.9 193.26,112.89C183.6,101.75 171.32,101.22 167.28,111.78C165.82,115.58 165.65,120.89 165.45,166.29L165.27,210.38 182.05,210.49C196.45,210.58 198.88,210.68 199.21,211.2C199.85,212.21 199.71,242.89 199.07,243.78C198.25,244.89 139.76,244.1 138.92,242.96C138.2,241.97 138.23,209.73 138.99,162.4C139.32,142.27 139.66,121.12 139.74,115.4C139.97,100.88 142.57,91.8 148.4,85.27C148.73,84.89 150.06,83.33 151.35,81.79C160.27,71.19 173.62,66.47 185.82,69.62M220.2,174.31C244.42,179.52 263.97,194.63 274.13,216C295.98,261.99 267.79,315.52 217.47,323.59C211.54,324.54 199.31,324.75 198.48,323.92C197.92,323.36 197.78,292.56 198.33,291.69C198.59,291.29 199.32,291.28 201.83,291.63C226.07,295.03 248.67,274.13 248.57,248.4C248.48,223.94 230.76,206.19 206,205.76C201.93,205.69 198.46,205.63 198.3,205.62C197.74,205.59 197.94,174.22 198.5,173.64C199.3,172.81 215.55,173.31 220.2,174.31" stroke="#00000000" id="path_1"/><path fill="#90a3fc" fill-rule="evenodd" d="M173.51,69.08C174,69.18 174.72,69.18 175.1,69.07C175.49,68.97 175.08,68.9 174.2,68.9C173.32,68.9 173.01,68.99 173.51,69.08M180.03,68.95C180.13,69.03 181.37,69.19 182.8,69.32C184.44,69.45 184.96,69.42 184.2,69.21C182.98,68.89 179.73,68.68 180.03,68.95M186,69.98C186.33,70.21 186.95,70.39 187.37,70.39C188.39,70.4 188.07,70.17 186.6,69.84C185.72,69.65 185.56,69.68 186,69.98M190.4,71.4C190.95,71.71 191.58,71.97 191.8,71.97C192.02,71.97 191.75,71.71 191.2,71.4C190.65,71.09 190.02,70.83 189.8,70.83C189.58,70.83 189.85,71.09 190.4,71.4M162.55,72.59C161.04,73.35 159.26,74.45 158.6,75.02C157.62,75.86 157.75,75.82 159.31,74.8C160.37,74.11 162.21,73.09 163.41,72.54C164.62,71.99 165.6,71.46 165.6,71.37C165.6,71.08 165.38,71.17 162.55,72.59M192.4,72.18C192.4,72.29 192.94,72.66 193.6,73C194.26,73.34 194.8,73.53 194.8,73.42C194.8,73.31 194.26,72.94 193.6,72.6C192.94,72.26 192.4,72.07 192.4,72.18M195.2,73.72C195.2,73.82 195.86,74.41 196.67,75.03C197.48,75.64 198.01,75.94 197.86,75.69C197.54,75.18 195.2,73.45 195.2,73.72M155.77,77.3L154.6,78.6 155.9,77.43C157.11,76.33 157.38,76 157.07,76C157.01,76 156.42,76.58 155.77,77.3M198.4,76.09C198.4,76.18 199.43,77.13 200.7,78.2C201.96,79.28 202.64,79.74 202.2,79.24C201.36,78.27 198.4,75.82 198.4,76.09M150.79,82.42C149.86,83.53 149.17,84.49 149.25,84.56C149.33,84.63 150.17,83.73 151.12,82.55C153.29,79.83 153.04,79.73 150.79,82.42M206.45,83.81C207.38,84.8 208.52,86.15 208.97,86.8C209.43,87.45 209.95,87.99 210.14,87.99C210.32,88 209.98,87.42 209.38,86.7C206.89,83.73 205.28,82 205.03,82C204.88,82 205.52,82.81 206.45,83.81M147.76,86.13C147.31,86.83 146.62,87.89 146.22,88.5C145.83,89.11 145.59,89.6 145.7,89.6C145.97,89.6 148.89,85.15 148.72,84.99C148.65,84.92 148.22,85.43 147.76,86.13M144.6,91.2C144.26,91.86 144.07,92.4 144.18,92.4C144.29,92.4 144.66,91.86 145,91.2C145.34,90.54 145.53,90 145.42,90C145.31,90 144.94,90.54 144.6,91.2M212.55,91.69C213.36,93.03 213.37,94.02 212.61,95.02C212.29,95.45 212.02,95.98 212.01,96.2C212.01,96.42 212.36,96.06 212.8,95.4C213.81,93.87 213.8,92.86 212.74,91.6L211.9,90.6 212.55,91.69M143.05,94.39C142.15,96.65 142.29,96.98 143.24,94.84C143.67,93.88 143.95,93.01 143.86,92.93C143.77,92.84 143.41,93.5 143.05,94.39M210.26,99.8C209.46,101.45 208.81,102.94 208.82,103.1C208.83,103.27 209.56,101.98 210.43,100.24C211.3,98.5 211.95,97.02 211.87,96.94C211.79,96.86 211.07,98.15 210.26,99.8M141.05,100.05C140.72,101.72 141.04,102.04 141.4,100.4C141.55,99.71 141.59,99.06 141.49,98.96C141.39,98.86 141.19,99.35 141.05,100.05M179.6,104.15C179.6,104.24 180.13,104.39 180.78,104.48C181.43,104.58 181.87,104.51 181.76,104.33C181.56,104.01 179.6,103.85 179.6,104.15M170.66,106.5C169.52,107.65 169.43,107.79 170.38,106.95C171.16,106.27 172.16,105.51 172.6,105.26C173.04,105.02 173.16,104.82 172.88,104.81C172.59,104.81 171.59,105.57 170.66,106.5M182.8,105.09C183.13,105.21 183.9,105.56 184.5,105.86C185.1,106.17 185.6,106.33 185.6,106.22C185.6,105.91 183.3,104.8 182.72,104.83C182.37,104.85 182.4,104.94 182.8,105.09M206.18,108.04C205.83,108.72 205.61,109.35 205.7,109.43C205.79,109.52 206.16,108.96 206.52,108.19C207.34,106.47 207.06,106.34 206.18,108.04M139.78,121.2C139.78,129.01 139.83,132.21 139.9,128.3C139.96,124.39 139.96,118 139.9,114.1C139.83,110.19 139.78,113.39 139.78,121.2M191.03,110.61C192.59,112.14 194.81,114.61 195.97,116.1C197.13,117.58 198.16,118.8 198.26,118.8C199.02,118.8 192.18,110.92 189.83,109.08C188.9,108.36 189.43,109.02 191.03,110.61M165.85,115.64C165.71,116.33 165.62,117.64 165.65,118.55C165.69,119.77 165.79,119.47 166.03,117.41C166.37,114.46 166.28,113.52 165.85,115.64M200.11,119.84C199.63,120.37 199.39,120.8 199.59,120.8C200.06,120.8 201.2,119.64 201.2,119.17C201.2,118.69 201.16,118.71 200.11,119.84M139.37,146.4C139.37,150.47 139.43,152.13 139.5,150.1C139.57,148.07 139.57,144.74 139.5,142.7C139.43,140.66 139.37,142.33 139.37,146.4M165.39,166C165.39,177.99 165.44,182.9 165.5,176.9C165.56,170.9 165.56,161.1 165.5,155.1C165.44,149.1 165.39,154.01 165.39,166M138.98,176C138.98,182.71 139.03,185.46 139.1,182.1C139.17,178.74 139.17,173.26 139.1,169.9C139.03,166.54 138.98,169.29 138.98,176M202.5,173.5C204.65,173.57 208.15,173.57 210.3,173.5C212.45,173.43 210.69,173.37 206.4,173.37C202.11,173.37 200.35,173.43 202.5,173.5M198.18,189.8C198.18,198.6 198.24,202.14 198.3,197.67C198.36,193.2 198.36,186 198.3,181.67C198.24,177.34 198.18,181 198.18,189.8M220.6,174.79C221.36,175.13 223.91,175.36 223.57,175.06C223.48,174.98 222.59,174.8 221.6,174.67C220.4,174.51 220.07,174.55 220.6,174.79M227.2,176.38C227.53,176.6 228.15,176.79 228.57,176.79C229.59,176.8 229.27,176.57 227.8,176.24C226.92,176.05 226.76,176.09 227.2,176.38M242.4,182.58C242.4,182.69 242.94,183.06 243.6,183.4C244.26,183.74 244.8,183.93 244.8,183.82C244.8,183.71 244.26,183.34 243.6,183C242.94,182.66 242.4,182.47 242.4,182.58M250,187.32C250,187.42 251.3,188.52 252.9,189.77C254.97,191.38 255.28,191.56 254,190.37C252.12,188.63 250,187.02 250,187.32M164.99,199.2L165,210.6 181.5,210.61L198,210.61 181.61,210.5L165.21,210.39 165.1,199.1L164.98,187.8 164.99,199.2M138.59,215.4C138.59,230.36 138.64,236.42 138.7,228.87C138.76,221.32 138.76,209.08 138.7,201.67C138.64,194.26 138.59,200.44 138.59,215.4M259,195.2C260.75,196.96 262.27,198.4 262.38,198.4C262.49,198.4 261.15,196.96 259.4,195.2C257.65,193.44 256.13,192 256.02,192C255.91,192 257.25,193.44 259,195.2M262.4,198.93C262.4,198.99 262.98,199.58 263.7,200.23L265,201.4 263.83,200.1C262.73,198.89 262.4,198.62 262.4,198.93M203.5,205.49C204.65,205.58 206.54,205.58 207.7,205.49C208.85,205.41 207.91,205.35 205.6,205.35C203.29,205.35 202.35,205.41 203.5,205.49M211.23,205.74C211.32,205.82 212.3,205.99 213.4,206.12C214.69,206.27 215.12,206.23 214.6,206C213.84,205.67 210.89,205.45 211.23,205.74M269.44,208.1C270.25,209.37 270.99,210.4 271.08,210.4C271.35,210.4 269.9,208.08 268.89,206.89C268.38,206.29 268.63,206.84 269.44,208.1M221.56,208.43C222.48,208.8 225.09,209.97 225.7,210.29C225.87,210.38 226,210.35 226,210.24C226,209.94 221.68,207.99 221.09,208.02C220.82,208.04 221.03,208.22 221.56,208.43M226.95,210.89C234.33,215.87 237.49,218.79 241.2,224.08C242.3,225.64 243.2,226.79 243.2,226.61C243.2,224.17 232.13,213.18 227.43,210.97C226.75,210.65 226.54,210.62 226.95,210.89M272.28,212.99C272.87,214.19 273.42,215.11 273.51,215.03C273.68,214.85 271.67,210.8 271.4,210.8C271.29,210.8 271.69,211.79 272.28,212.99M199.38,227.4C199.38,236.2 199.43,239.74 199.5,235.27C199.56,230.8 199.56,223.6 199.5,219.27C199.43,214.94 199.38,218.6 199.38,227.4M274.28,216.99C274.64,217.76 275.01,218.32 275.1,218.23C275.28,218.05 274.07,215.6 273.8,215.6C273.7,215.6 273.91,216.23 274.28,216.99M277.61,225.43C277.61,225.85 277.8,226.47 278.02,226.8C278.32,227.24 278.35,227.08 278.16,226.2C277.83,224.73 277.6,224.41 277.61,225.43M278.46,228C278.46,228.33 278.61,228.96 278.8,229.4C279.02,229.9 279.14,229.98 279.14,229.6C279.14,229.27 278.99,228.64 278.8,228.2C278.58,227.7 278.46,227.62 278.46,228M279.21,231.23C279.21,231.76 279.39,232.47 279.61,232.8C279.88,233.22 279.92,232.99 279.74,232C279.42,230.27 279.2,229.95 279.21,231.23M280.1,234.8C280.1,235.35 280.23,236.34 280.4,237C280.67,238.07 280.7,238.09 280.7,237.2C280.7,236.65 280.57,235.66 280.4,235C280.13,233.93 280.1,233.91 280.1,234.8M247.26,236.8C247.26,237.13 247.41,237.76 247.6,238.2C247.82,238.7 247.94,238.78 247.94,238.4C247.94,238.07 247.79,237.44 247.6,237C247.38,236.5 247.26,236.42 247.26,236.8M248.28,241.45C248.54,244.15 248.73,244.53 248.76,242.4C248.78,241.41 248.63,240.35 248.44,240.05C248.22,239.71 248.16,240.24 248.28,241.45M280.91,241.4C280.92,242.5 280.99,242.9 281.09,242.29C281.18,241.69 281.18,240.79 281.08,240.29C280.99,239.8 280.91,240.3 280.91,241.4M139.16,243.32C139.35,243.51 140.11,243.6 140.85,243.52C142.17,243.38 142.16,243.38 140.51,243.18C139.58,243.07 138.97,243.13 139.16,243.32M151.72,243.9C154.32,243.97 158.46,243.97 160.92,243.9C163.38,243.83 161.26,243.77 156.2,243.77C151.14,243.77 149.13,243.83 151.72,243.9M281.29,247.64C281.24,249.97 281.12,253.3 281.02,255.04L280.84,258.2 281.22,255.2C281.44,253.55 281.56,250.22 281.49,247.8L281.37,243.4 281.29,247.64M182.32,244.3C185.47,244.37 190.51,244.37 193.52,244.3C196.54,244.23 193.96,244.18 187.8,244.18C181.64,244.18 179.18,244.23 182.32,244.3M248.94,248.6C248.94,250.58 249.01,251.44 249.09,250.51C249.18,249.58 249.18,247.96 249.1,246.91C249.01,245.86 248.94,246.62 248.94,248.6M248.46,254.6C248.42,255.48 248.3,256.65 248.18,257.2L247.98,258.2 248.41,257.21C248.64,256.67 248.77,255.5 248.69,254.61L248.54,253 248.46,254.6M280.22,261.42C280.07,262.44 280.02,263.36 280.12,263.45C280.22,263.55 280.43,262.8 280.58,261.78C280.73,260.76 280.78,259.85 280.68,259.74C280.58,259.64 280.37,260.4 280.22,261.42M279.46,264.88C279.32,265.39 279.23,266.16 279.25,266.6C279.27,267.04 279.45,266.7 279.65,265.84C280.04,264.18 279.87,263.34 279.46,264.88M278.63,268.63C278.48,269.21 278.44,269.77 278.53,269.87C278.63,269.96 278.82,269.56 278.97,268.97C279.12,268.39 279.16,267.83 279.07,267.73C278.97,267.64 278.78,268.04 278.63,268.63M243.15,270.1C242.89,270.6 242.41,271.45 242.1,272C241.54,272.96 241.54,272.97 242.19,272.2C242.99,271.25 244.1,269.2 243.82,269.2C243.72,269.2 243.41,269.61 243.15,270.1M277.85,271.02C277.71,271.37 277.61,271.97 277.63,272.33C277.65,272.7 277.83,272.47 278.02,271.82C278.4,270.56 278.27,269.93 277.85,271.02M240.17,274.7C239.55,275.52 237.95,277.38 236.62,278.83L234.2,281.46 237.01,278.63C239.58,276.04 241.91,273.2 241.48,273.2C241.38,273.2 240.79,273.88 240.17,274.7M275.87,276.87C275.51,277.79 275.27,278.61 275.35,278.69C275.43,278.77 275.8,278.08 276.17,277.17C276.53,276.25 276.76,275.43 276.68,275.35C276.59,275.26 276.23,275.95 275.87,276.87M274.28,280.61C273.91,281.37 273.7,282 273.8,282C274.07,282 275.28,279.55 275.1,279.37C275.01,279.28 274.64,279.84 274.28,280.61M232.59,282.41C232.46,282.63 231.41,283.44 230.28,284.21C229.14,284.97 228.36,285.6 228.54,285.6C228.92,285.6 230.82,284.32 232.53,282.92C233.15,282.42 233.48,282 233.25,282C233.03,282 232.73,282.18 232.59,282.41M272.78,283.5C271.87,285.3 271.89,285.48 272.82,284.08C273.3,283.36 273.62,282.68 273.52,282.58C273.41,282.48 273.08,282.89 272.78,283.5M271,286.8C270.66,287.46 270.47,288 270.58,288C270.69,288 271.06,287.46 271.4,286.8C271.74,286.14 271.93,285.6 271.82,285.6C271.71,285.6 271.34,286.14 271,286.8M199.2,291.59C200.19,291.92 203.49,292.14 203.17,291.86C203.07,291.78 201.92,291.61 200.6,291.49C199.11,291.35 198.58,291.39 199.2,291.59M209.8,291.6L207.8,291.87 209.6,291.9C210.59,291.91 211.85,291.78 212.4,291.6C213.64,291.2 212.71,291.2 209.8,291.6M198.18,307.8C198.18,316.6 198.24,320.14 198.3,315.67C198.36,311.2 198.36,304 198.3,299.67C198.24,295.34 198.18,299 198.18,307.8M264.58,296.1C263.3,297.7 262.58,298.74 262.97,298.42C263.75,297.78 267.35,293.2 267.07,293.2C266.98,293.2 265.86,294.51 264.58,296.1M259.08,302.26C257.38,303.95 256.05,305.38 256.12,305.45C256.19,305.52 257.67,304.14 259.41,302.39C261.15,300.64 262.49,299.2 262.37,299.2C262.26,299.2 260.77,300.58 259.08,302.26M253.6,307.25L251.8,308.89 253.49,307.61C254.97,306.51 255.91,305.57 255.52,305.61C255.46,305.62 254.59,306.36 253.6,307.25M250,310.05C248.61,311.27 248.6,311.27 249.89,310.42C250.6,309.95 251.28,309.39 251.41,309.18C251.8,308.56 251.48,308.75 250,310.05M244.4,313.64C243.74,314.18 243.67,314.32 244.2,314.04C245.51,313.37 246.23,312.81 245.8,312.82C245.58,312.82 244.95,313.19 244.4,313.64M241.6,315.24C240.94,315.78 240.87,315.92 241.4,315.64C242.71,314.97 243.43,314.41 243,314.42C242.78,314.42 242.15,314.79 241.6,315.24M235.8,318C234.48,318.63 233.58,319.16 233.8,319.16C234.02,319.17 235.28,318.65 236.6,318.02C237.92,317.38 238.82,316.85 238.6,316.85C238.38,316.85 237.12,317.37 235.8,318M224,322.02C223.56,322.32 223.72,322.35 224.6,322.16C226.07,321.83 226.39,321.6 225.37,321.61C224.95,321.61 224.33,321.8 224,322.02M215.4,323.6C214.88,323.83 215.31,323.87 216.6,323.72C217.7,323.59 218.68,323.42 218.77,323.34C219.11,323.05 216.16,323.27 215.4,323.6M202.52,324.3C204.68,324.37 208.1,324.37 210.12,324.3C212.14,324.23 210.38,324.17 206.2,324.17C202.02,324.17 200.36,324.23 202.52,324.3" stroke="#00000000" id="path_2"/><path fill="#a2b4fc" fill-rule="evenodd" d="M176.71,69.09C177.43,69.18 178.51,69.18 179.11,69.09C179.71,69 179.12,68.92 177.8,68.92C176.48,68.93 175.99,69 176.71,69.09M176.71,103.88C177.2,103.98 177.92,103.97 178.3,103.88C178.69,103.78 178.28,103.7 177.4,103.7C176.52,103.71 176.21,103.79 176.71,103.88M169.77,106.9L168.6,108.2 169.9,107.03C171.11,105.93 171.38,105.6 171.07,105.6C171.01,105.6 170.42,106.18 169.77,106.9M165.37,137.2C165.37,141.27 165.43,142.93 165.5,140.9C165.57,138.87 165.57,135.54 165.5,133.5C165.43,131.46 165.37,133.13 165.37,137.2M139.71,136.8C139.71,137.79 139.79,138.2 139.88,137.7C139.98,137.21 139.98,136.4 139.88,135.9C139.79,135.4 139.71,135.81 139.71,136.8M139.73,141.2C139.73,142.63 139.8,143.21 139.89,142.5C139.98,141.79 139.98,140.62 139.89,139.9C139.8,139.18 139.73,139.77 139.73,141.2M139.33,156.4C139.33,158.05 139.4,158.73 139.49,157.9C139.58,157.07 139.58,155.73 139.49,154.9C139.4,154.07 139.33,154.75 139.33,156.4M164.97,180.8C164.97,184.87 165.02,186.54 165.1,184.5C165.17,182.46 165.17,179.13 165.1,177.1C165.02,175.07 164.97,176.73 164.97,180.8M138.99,215.4C138.99,230.58 139.04,236.73 139.1,229.07C139.16,221.41 139.16,208.99 139.1,201.47C139.04,193.95 138.99,200.22 138.99,215.4M165.14,210.9C165.31,211.07 172.91,211.16 182.02,211.1L198.6,211 181.72,210.8C172.44,210.69 164.98,210.74 165.14,210.9M144.48,243.5C145.96,243.57 148.48,243.57 150.08,243.5C151.69,243.42 150.48,243.36 147.4,243.36C144.32,243.36 143.01,243.42 144.48,243.5M166.7,243.89C167.63,243.98 169.16,243.98 170.1,243.89C171.04,243.81 170.27,243.74 168.4,243.74C166.53,243.74 165.76,243.81 166.7,243.89" stroke="#00000000" id="path_3"/><path fill="#acbcfc" fill-rule="evenodd" d="M175.52,69.5C176.9,69.57 179.06,69.57 180.32,69.5C181.57,69.42 180.44,69.35 177.8,69.35C175.16,69.35 174.13,69.42 175.52,69.5M167.6,70.8C166.8,71.31 167.8,71.31 169,70.8L169.8,70.46 169,70.43C168.56,70.42 167.93,70.59 167.6,70.8M186.83,70.54C186.93,70.62 187.54,70.81 188.2,70.96C189.08,71.15 189.24,71.11 188.8,70.82C188.26,70.45 186.43,70.2 186.83,70.54M164.9,71.83C164.18,72.15 163.6,72.49 163.6,72.61C163.6,72.82 166.41,71.73 166.75,71.39C167.09,71.05 166.22,71.26 164.9,71.83M191.23,72.15C191.65,72.52 194,73.6 194,73.42C194,73.19 191.78,72 191.35,72C191.2,72 191.14,72.07 191.23,72.15M159.71,74.54C159.01,75.01 158.42,75.54 158.41,75.71C158.41,75.87 159.12,75.54 160,74.95C160.88,74.37 161.6,73.83 161.6,73.75C161.6,73.44 160.95,73.71 159.71,74.54M195.6,74.53C195.6,74.62 196.26,75.21 197.07,75.82C197.88,76.44 198.41,76.74 198.26,76.49C197.94,75.98 195.6,74.25 195.6,74.53M153.34,80.13C150.06,83.62 145.34,89.87 145.72,90.25C145.84,90.37 146.15,90.05 146.42,89.53C147.34,87.74 151.3,82.69 154.09,79.76C155.64,78.13 156.81,76.8 156.69,76.8C156.58,76.8 155.07,78.3 153.34,80.13M200.8,78.46C200.8,78.57 202.3,80.17 204.13,82.03C205.95,83.88 208.13,86.21 208.96,87.2C209.8,88.19 210.24,88.63 209.94,88.17C208.42,85.83 200.8,77.74 200.8,78.46M211.84,95.64C211.45,96.31 211.21,96.94 211.32,97.05C211.43,97.16 211.81,96.67 212.16,95.96C212.99,94.29 212.77,94.07 211.84,95.64M141,102C140.85,102.69 140.81,103.34 140.91,103.44C141.01,103.54 141.21,103.05 141.35,102.35C141.68,100.68 141.36,100.36 141,102M175,103.56C174.31,103.71 175.43,103.82 177.6,103.83C180.4,103.84 180.98,103.76 179.8,103.54C177.92,103.19 176.65,103.2 175,103.56M140.26,106.29C140.12,107.12 140.04,112.75 140.09,118.8L140.16,129.8 140.38,117.4C140.5,110.58 140.58,104.95 140.55,104.89C140.53,104.83 140.4,105.46 140.26,106.29M206.27,107.02C205.33,108.99 205.46,109.32 206.45,107.46C206.89,106.62 207.19,105.85 207.1,105.77C207.01,105.68 206.64,106.24 206.27,107.02M188.2,107.47C189.76,109.04 192.45,111.21 191.4,110.05C190.74,109.32 189.66,108.35 189,107.9C188.34,107.44 187.98,107.25 188.2,107.47M204.58,110.44C204.23,111.12 204.01,111.75 204.1,111.83C204.19,111.92 204.56,111.36 204.92,110.6C205.74,108.87 205.46,108.74 204.58,110.44M193.83,112.78C194.29,113.34 195.05,114.32 195.53,114.95C196.01,115.59 196.4,115.94 196.4,115.74C196.4,115.54 195.63,114.56 194.7,113.56C193.76,112.57 193.37,112.21 193.83,112.78M202.98,113.64C202.63,114.32 202.41,114.94 202.5,115.03C202.59,115.12 202.96,114.56 203.32,113.79C204.14,112.07 203.86,111.94 202.98,113.64M165.83,113.83C165.68,114.42 165.64,114.97 165.73,115.07C165.83,115.16 166.02,114.76 166.17,114.17C166.32,113.58 166.36,113.03 166.27,112.93C166.17,112.84 165.98,113.24 165.83,113.83M198.04,118.11C199.29,119.93 200.4,120.43 200.64,119.29C200.69,119.01 200.65,118.96 200.54,119.19C200.3,119.66 199.21,119.75 199.19,119.3C199.18,119.14 198.63,118.37 197.95,117.6L196.73,116.2 198.04,118.11M165.06,126.86C164.92,132.18 164.83,144.91 164.87,155.16C164.93,173.25 164.95,172.96 165.22,145.6C165.38,130.09 165.47,117.35 165.42,117.3C165.37,117.24 165.21,121.54 165.06,126.86M139.41,159.28C139.25,167.93 139.19,175.81 139.26,176.8C139.34,177.79 139.55,170.8 139.74,161.27C139.92,151.74 139.99,143.85 139.88,143.75C139.78,143.65 139.57,150.63 139.41,159.28M198.58,174.1C198.48,174.38 198.44,181.51 198.49,189.95L198.6,205.29 206.16,205.35C211.44,205.38 213.07,205.3 211.56,205.07C210.37,204.89 207.01,204.81 204.1,204.9L198.8,205.06 198.8,189.55L198.8,174.04 201.1,173.9L203.4,173.75 201.09,173.68C199.54,173.63 198.71,173.77 198.58,174.1M208.83,173.74C208.93,173.82 210.8,173.98 213,174.1C215.6,174.23 216.44,174.19 215.4,173.98C213.82,173.65 208.51,173.46 208.83,173.74M218.8,174.8C220.17,175.24 221.22,175.24 220.2,174.8C219.76,174.61 219.04,174.46 218.6,174.47C217.96,174.48 218,174.54 218.8,174.8M221.63,175.35C221.73,175.43 222.52,175.6 223.4,175.74C224.51,175.91 224.76,175.87 224.2,175.62C223.43,175.27 221.29,175.04 221.63,175.35M230.8,178C231.13,178.21 231.67,178.39 232,178.39C232.53,178.39 232.53,178.35 232,178C231.67,177.79 231.13,177.61 230.8,177.61C230.27,177.61 230.27,177.65 230.8,178M233.6,178.97C234.15,179.26 235.05,179.61 235.6,179.75C236.15,179.89 235.88,179.65 235,179.23C233.19,178.36 232.07,178.15 233.6,178.97M236.8,180.17C236.8,180.51 239.26,181.68 239.49,181.44C239.61,181.32 239.21,181.03 238.6,180.8C237.99,180.57 237.33,180.28 237.14,180.16C236.95,180.05 236.8,180.05 236.8,180.17M240,181.79C240,181.9 240.9,182.44 242,183C243.1,183.56 244,183.92 244,183.81C244,183.7 243.1,183.16 242,182.6C240.9,182.04 240,181.68 240,181.79M245.8,185.07C246.02,185.29 247.46,186.34 249,187.4C250.54,188.47 252.79,190.15 254,191.12L256.2,192.89 254.4,191.2C252.33,189.26 244.01,183.33 245.8,185.07M256.84,193.7C256.94,193.76 257.91,194.61 259.01,195.6L261,197.4 259.22,195.5C258.24,194.46 257.26,193.6 257.05,193.6C256.84,193.6 256.74,193.65 256.84,193.7M263.02,200.2C265.34,202.85 266.56,203.86 264.58,201.5C262.31,198.78 261.22,197.6 260.98,197.6C260.84,197.6 261.76,198.77 263.02,200.2M164.54,206.4C164.54,208.49 164.61,209.35 164.69,208.3C164.78,207.26 164.78,205.54 164.69,204.5C164.61,203.46 164.54,204.31 164.54,206.4M267.9,206.55C269.15,208.42 270.25,209.88 270.33,209.8C270.51,209.63 266.45,203.68 265.95,203.37C265.76,203.25 266.64,204.69 267.9,206.55M227.2,210.51C227.2,210.61 228.37,211.45 229.8,212.37C233.51,214.77 238.73,219.86 241.21,223.49C243.64,227.06 244.56,228.13 243.19,225.8C240.19,220.69 233.91,214.38 228.7,211.24C227.88,210.74 227.2,210.41 227.2,210.51M198.71,227.46L198.82,243.72 175.71,243.51C156.66,243.34 154.95,243.36 166,243.65C173.37,243.84 183.81,243.95 189.2,243.9L199,243.8 199.1,227.5C199.16,218.54 199.07,211.2 198.9,211.2C198.74,211.2 198.65,218.52 198.71,227.46M272.68,214.6C273.04,215.36 273.41,215.92 273.5,215.83C273.68,215.65 272.47,213.2 272.2,213.2C272.1,213.2 272.31,213.83 272.68,214.6M277.61,226.8C277.61,227.13 277.79,227.67 278,228C278.35,228.53 278.39,228.53 278.39,228C278.39,227.67 278.21,227.13 278,226.8C277.65,226.27 277.61,226.27 277.61,226.8M278.47,229.6C278.49,230.64 279.12,232.35 279.13,231.4C279.14,230.96 278.99,230.24 278.8,229.8C278.59,229.31 278.46,229.23 278.47,229.6M279.44,233.8C279.77,235.27 280,235.59 279.99,234.57C279.99,234.15 279.8,233.53 279.58,233.2C279.29,232.76 279.25,232.92 279.44,233.8M247.26,235.2C247.26,235.53 247.41,236.16 247.6,236.6C247.82,237.1 247.94,237.18 247.94,236.8C247.94,236.47 247.79,235.84 247.6,235.4C247.38,234.9 247.26,234.82 247.26,235.2M280.28,239.2C280.4,240.85 280.57,242.27 280.65,242.37C280.93,242.68 280.75,239.4 280.41,237.8C280.15,236.61 280.12,236.98 280.28,239.2M249,248.6C249,253 249.12,255.7 249.26,254.6C249.6,252.06 249.6,245.66 249.26,242.8C249.12,241.57 249,244.14 249,248.6M280.95,248.8C280.95,251.33 281.02,252.37 281.1,251.1C281.17,249.84 281.17,247.76 281.1,246.5C281.02,245.24 280.95,246.27 280.95,248.8M280.26,257.96C280.11,259.59 280.06,260.99 280.16,261.09C280.41,261.34 280.92,256.16 280.71,255.53C280.61,255.24 280.41,256.33 280.26,257.96M248.2,258C248.05,258.47 248.02,258.95 248.13,259.06C248.24,259.17 248.45,258.87 248.6,258.4C248.75,257.93 248.78,257.45 248.67,257.34C248.56,257.23 248.35,257.53 248.2,258M247.43,261.03C247.28,261.61 247.24,262.17 247.33,262.27C247.43,262.36 247.62,261.96 247.77,261.37C247.92,260.79 247.96,260.23 247.87,260.13C247.77,260.04 247.58,260.44 247.43,261.03M279.43,263.43C279.28,264.02 279.25,264.58 279.36,264.69C279.47,264.8 279.68,264.42 279.83,263.83C279.98,263.24 280.01,262.67 279.9,262.56C279.79,262.45 279.58,262.84 279.43,263.43M278.65,266.85C278.51,267.55 278.47,268.2 278.56,268.29C278.65,268.38 278.85,267.89 279,267.2C279.15,266.51 279.19,265.86 279.09,265.76C278.99,265.66 278.79,266.15 278.65,266.85M241.99,272.69C239.76,276.03 239.44,276.86 241.39,274.2C242.8,272.29 244.16,270 243.9,270C243.83,270 242.97,271.21 241.99,272.69M236.8,278.89C234.53,281.33 232.65,282.92 228.79,285.71C228.13,286.18 228.07,286.3 228.61,286.05C231.08,284.89 239.6,277.36 239.6,276.33C239.6,275.87 239.68,275.8 236.8,278.89M272.68,283.01C272.31,283.77 272.1,284.4 272.2,284.4C272.47,284.4 273.68,281.95 273.5,281.77C273.41,281.68 273.04,282.24 272.68,283.01M271,286C270.66,286.66 270.47,287.2 270.58,287.2C270.69,287.2 271.06,286.66 271.4,286C271.74,285.34 271.93,284.8 271.82,284.8C271.71,284.8 271.34,285.34 271,286M224.4,288C223.63,288.42 223.14,288.77 223.32,288.78C223.74,288.8 226,287.63 226,287.39C226,287.13 225.98,287.14 224.4,288M268.26,290.5C267.22,292.1 266.87,292.81 267.48,292.09C268.57,290.81 270.57,287.6 270.28,287.6C270.2,287.6 269.29,288.9 268.26,290.5M219.4,290C218.9,290.22 218.82,290.34 219.2,290.34C219.53,290.34 220.16,290.19 220.6,290C221.1,289.78 221.18,289.66 220.8,289.66C220.47,289.66 219.84,289.81 219.4,290M212.8,291.62C212.13,291.85 212.45,291.88 213.8,291.73C214.9,291.6 215.88,291.43 215.97,291.35C216.28,291.07 213.8,291.28 212.8,291.62M198.58,292.1C198.48,292.38 198.44,299.62 198.49,308.2L198.6,323.8 199.6,323.87C200.5,323.92 200.51,323.91 199.69,323.74L198.78,323.54 198.89,307.57C198.95,298.79 198.95,291.6 198.89,291.6C198.83,291.6 198.69,291.83 198.58,292.1M203.1,292.3C204.48,292.37 206.73,292.37 208.1,292.3C209.48,292.22 208.35,292.15 205.6,292.15C202.85,292.15 201.73,292.22 203.1,292.3M264.78,295.3C264.03,296.23 262.63,297.86 261.66,298.9C260.68,299.95 260.02,300.8 260.17,300.8C260.52,300.8 260.86,300.44 263.41,297.4C265.99,294.32 266.54,293.6 266.32,293.6C266.22,293.6 265.52,294.36 264.78,295.3M255.2,305.3C253.55,306.85 252.72,307.73 253.35,307.27C255.08,305.97 258.52,302.79 258.35,302.62C258.27,302.55 256.85,303.75 255.2,305.3M250.2,309.25C247.83,311.02 247.52,311.51 249.68,310.05C250.71,309.36 251.67,308.61 251.8,308.39C252.15,307.83 251.98,307.92 250.2,309.25M244.7,312.95C242.77,314.13 242.24,314.69 243.8,313.88C245.05,313.23 246.74,312.03 246.4,312.02C246.29,312.02 245.52,312.44 244.7,312.95M240.8,315.2C240.03,315.62 239.54,315.97 239.72,315.98C240.14,316.01 242.4,314.83 242.4,314.59C242.4,314.33 242.38,314.34 240.8,315.2M225.6,321.2C224.78,321.46 224.74,321.53 225.4,321.55C225.84,321.57 226.47,321.41 226.8,321.2C227.5,320.75 227.01,320.75 225.6,321.2M218,322.8C216.64,323.09 216.64,323.1 217.8,323.11C218.46,323.11 219.45,322.98 220,322.8C221.31,322.38 220,322.38 218,322.8M212.6,323.6L211,323.89 212.4,323.9C213.17,323.91 214.25,323.78 214.8,323.6C216.09,323.19 214.9,323.19 212.6,323.6" stroke="#00000000" id="path_4"/></svg>